<svg xmlns="http://www.w3.org/2000/svg" xmlns:xlink="http://www.w3.org/1999/xlink" width="83" height="52"><defs><path id="a" d="M.46.08h19.56v18.562H.46z"></path></defs><g fill="none" fill-rule="evenodd"><path fill="#45b67d" d="M0 0v51.626h25.28v-2.943H2.961V2.943h40.58v3.06h2.96V0z"></path><path fill="#45b67d" d="M27.034 21.053h4.158V18.6h-4.158zM10.373 30.615h20.819v-2.453H10.373zM10.373 40.177h10.949v-2.453H10.373zM14.133 19.985h5.795v-2.453h-5.795z"></path><path fill="#45b67d" d="M17.471 9.872h-.882l-5.984 11.585h2.774l3.651-7.069 3.652 7.069h2.773zM73.541 50.35h-2.96V26.16c0-8.725-7.142-15.824-15.92-15.824-8.777 0-15.919 7.099-15.919 15.824V50.35h-2.96V26.161c0-10.348 8.469-18.767 18.88-18.767 10.41 0 18.88 8.42 18.88 18.767V50.35z"></path><g transform="translate(26.156 33.002)"><mask id="b" fill="#fff"><use xlink:href="#a"></use></mask><path d="M9.796 3.023c-3.515 0-6.375 2.843-6.375 6.338 0 3.494 2.86 6.337 6.375 6.337h7.263V3.023H9.796zM20.02 18.642H9.796C4.648 18.642.46 14.478.46 9.36.46 4.243 4.648.08 9.796.08H20.02v18.562z" fill="#45b67d" mask="url(#b)"></path></g><path d="M65.62 48.7h7.263c3.515 0 6.376-2.843 6.376-6.338 0-3.494-2.86-6.337-6.376-6.337H65.62V48.7zm7.263 2.943H62.659V33.081h10.224c5.148 0 9.337 4.164 9.337 9.281 0 5.118-4.19 9.281-9.337 9.281z" fill="#45b67d"></path></g></svg>