<svg xmlns="http://www.w3.org/2000/svg" width="53" height="52" class="sprite sprite--features sprite--offline features__image"><g fill="#45b67d" fill-rule="evenodd"><path d="M24.761 27.626V46.04l-3.811-3.812-2.121 2.121 7.432 7.434 7.433-7.434-2.12-2.12-3.813 3.81V27.627z"></path><path d="M39.98 11.907c-1.656 0-3.27.32-4.772.939C34.808 5.97 29.088.5 22.115.5c-6.47 0-11.85 4.6-12.92 10.862C3.73 13.056 0 18.062 0 23.878c0 7.232 5.884 13.115 13.115 13.115h8.26v-3h-8.26C7.538 33.993 3 29.456 3 23.878c0-4.686 3.315-8.835 7.881-9.864l1.065-.24.099-1.087A10.057 10.057 0 0 1 22.115 3.5c5.578 0 10.115 4.538 10.115 10.115 0 .278-.016.959-.041 1.708l-.103 2.99 2.458-1.707a9.48 9.48 0 0 1 5.436-1.7c5.262 0 9.543 4.282 9.543 9.544 0 5.262-4.281 9.543-9.543 9.543h-8.937v3h9.48v-.014c6.665-.285 12-5.795 12-12.53 0-6.915-5.627-12.542-12.543-12.542"></path></g></svg>