<svg xmlns="http://www.w3.org/2000/svg" width="62" height="52" class="sprite sprite--features sprite--devices features__image"><g fill="none" fill-rule="evenodd"><path d="M61.541 9.474H58.68v-4.17a2.444 2.444 0 0 0-2.441-2.441H5.304a2.444 2.444 0 0 0-2.442 2.44v4.171H0v-4.17A5.31 5.31 0 0 1 5.304 0h50.934a5.31 5.31 0 0 1 5.303 5.304v4.17z" fill="#45b67d"></path><path fill="#45b67d" d="M1.431 10.428h58.68V8.52H1.43z"></path><path d="M46.931 50.569H30.514a1.89 1.89 0 0 1-1.89-1.89V18.11a1.89 1.89 0 0 1 1.89-1.89h16.417a1.89 1.89 0 0 1 1.89 1.89V48.68a1.89 1.89 0 0 1-1.89 1.89"></path><path d="M30.514 17.651a.46.46 0 0 0-.459.46v30.568a.46.46 0 0 0 .459.459H46.93a.46.46 0 0 0 .46-.46V18.11a.46.46 0 0 0-.46-.459H30.514zM46.93 52H30.514a3.325 3.325 0 0 1-3.321-3.321V18.11a3.325 3.325 0 0 1 3.32-3.321h16.418a3.325 3.325 0 0 1 3.321 3.321V48.68A3.325 3.325 0 0 1 46.932 52z" fill="#45b67d"></path><path d="M48.821 41.318H28.624" fill="#FFF"></path><path fill="#45b67d" d="M28.624 42.272H48.82v-1.908H28.624zM40.452 45.97a1.73 1.73 0 1 1-3.459 0 1.73 1.73 0 0 1 3.46 0M58.679 9.474V42.46h-5.3v2.862h8.162V9.474zM0 9.474v35.847h24.11v-2.862H2.863V9.474z"></path></g></svg>