<svg xmlns="http://www.w3.org/2000/svg" width="14" height="14" viewBox="0 0 14 14">
  <defs>
    <style>
      .cls-1 {
        fill: #333;
        fill-rule: evenodd;
      }
    </style>
  </defs>
  <path id="ic-facebook.svg" class="cls-1" d="M1281.49,4078.65a0.754,0.754,0,0,0-.23-0.56,0.771,0.771,0,0,0-.55-0.22h-12.44a0.746,0.746,0,0,0-.56.22,0.786,0.786,0,0,0-.22.56v12.44a0.815,0.815,0,0,0,.22.55,0.754,0.754,0,0,0,.56.23h6.69v-5.44h-1.81v-2.09h1.81v-1.56a2.736,2.736,0,0,1,.75-2.07,2.768,2.768,0,0,1,1.97-.71q0.975,0,1.62.06v1.9h-1.12a1.051,1.051,0,0,0-.84.29,1.11,1.11,0,0,0-.19.75v1.34h2.09l-0.28,2.09h-1.81v5.44h3.56a0.738,0.738,0,0,0,.56-0.23,0.771,0.771,0,0,0,.22-0.55v-12.44Z" transform="translate(-1267.5 -4077.88)"/>
</svg>
