<svg xmlns="http://www.w3.org/2000/svg" width="14" height="14" viewBox="0 0 14 14">
  <defs>
    <style>
      .cls-1 {
        fill: #333;
        fill-rule: evenodd;
      }
    </style>
  </defs>
  <path id="ic-instagram.svg" class="cls-1" d="M1274.49,4053.28a3.516,3.516,0,0,1,1.8.48,3.618,3.618,0,0,1,1.8,3.11,3.525,3.525,0,0,1-.49,1.8,3.578,3.578,0,0,1-1.31,1.31,3.6,3.6,0,0,1-3.59,0,3.605,3.605,0,0,1-1.32-1.31,3.516,3.516,0,0,1-.48-1.8,3.569,3.569,0,0,1,.48-1.8,3.605,3.605,0,0,1,1.32-1.31A3.507,3.507,0,0,1,1274.49,4053.28Zm0,5.93a2.339,2.339,0,0,0,2.35-2.34,2.345,2.345,0,1,0-4,1.66A2.226,2.226,0,0,0,1274.49,4059.21Zm4.6-6.09a0.854,0.854,0,0,0-.85-0.84,0.794,0.794,0,0,0-.59.25,0.821,0.821,0,0,0,0,1.18,0.794,0.794,0,0,0,.59.25,0.758,0.758,0,0,0,.58-0.25A0.926,0.926,0,0,0,1279.09,4053.12Zm2.37,0.84q0.03,0.885.03,2.91c0,1.36-.01,2.33-0.04,2.92a6.074,6.074,0,0,1-.27,1.55,3.663,3.663,0,0,1-.86,1.36,3.794,3.794,0,0,1-1.36.86,6.1,6.1,0,0,1-1.55.26c-0.59.04-1.56,0.05-2.92,0.05s-2.33-.01-2.92-0.05a5.346,5.346,0,0,1-1.55-.29,3.472,3.472,0,0,1-1.36-.83,3.794,3.794,0,0,1-.86-1.36,6.1,6.1,0,0,1-.26-1.55c-0.03-.59-0.05-1.56-0.05-2.92s0.02-2.33.05-2.92a6.178,6.178,0,0,1,.26-1.55,3.662,3.662,0,0,1,2.22-2.22,6.178,6.178,0,0,1,1.55-.26c0.59-.03,1.57-0.05,2.92-0.05s2.33,0.02,2.92.05a6.1,6.1,0,0,1,1.55.26,3.794,3.794,0,0,1,1.36.86,3.663,3.663,0,0,1,.86,1.36A6.132,6.132,0,0,1,1281.46,4053.96Zm-1.5,7.04a6.364,6.364,0,0,0,.25-1.69c0.02-.46.03-1.11,0.03-1.94v-1c0-.85-0.01-1.5-0.03-1.94a5.934,5.934,0,0,0-.25-1.68,2.264,2.264,0,0,0-1.34-1.35,6.5,6.5,0,0,0-1.69-.25c-0.46-.02-1.1-0.03-1.94-0.03h-1c-0.83,0-1.48.01-1.94,0.03a6.634,6.634,0,0,0-1.68.25,2.254,2.254,0,0,0-1.35,1.35,6.779,6.779,0,0,0-.25,1.68c-0.02.46-.03,1.11-0.03,1.94v1c0,0.83.01,1.48,0.03,1.94a7.326,7.326,0,0,0,.25,1.69,2.373,2.373,0,0,0,1.35,1.34,6.634,6.634,0,0,0,1.68.25c0.46,0.02,1.11.03,1.94,0.03h1c0.86,0,1.5-.01,1.94-0.03a6.5,6.5,0,0,0,1.69-.25A2.386,2.386,0,0,0,1279.96,4061Z" transform="translate(-1267.5 -4049.88)"/>
</svg>
