<svg xmlns="http://www.w3.org/2000/svg" width="16" height="13" viewBox="0 0 16 13">
  <defs>
    <style>
      .cls-1 {
        fill: #333;
        fill-rule: evenodd;
      }
    </style>
  </defs>
  <path id="ic-twitter.svg" class="cls-1" d="M1280.84,4108.62a7.292,7.292,0,0,0,1.65-1.72,6.92,6.92,0,0,1-1.87.53,3.209,3.209,0,0,0,1.43-1.81,6.349,6.349,0,0,1-2.09.78,3.733,3.733,0,0,0-1.08-.75,3.079,3.079,0,0,0-1.33-.28,3.249,3.249,0,0,0-2.81,1.64,3.278,3.278,0,0,0-.44,1.64,4.756,4.756,0,0,0,.07.75,8.963,8.963,0,0,1-3.77-1,8.825,8.825,0,0,1-2.98-2.44,3.2,3.2,0,0,0-.07,3.22,3.713,3.713,0,0,0,1.07,1.19,3.105,3.105,0,0,1-1.47-.44V4110a3.152,3.152,0,0,0,.75,2.06,3.271,3.271,0,0,0,1.87,1.15,3.689,3.689,0,0,1-.87.1q-0.285,0-.6-0.03a3.283,3.283,0,0,0,1.15,1.61,3.083,3.083,0,0,0,1.92.64,6.566,6.566,0,0,1-4.1,1.4q-0.435,0-.78-0.03a9.461,9.461,0,0,0,10.13,0,8.9,8.9,0,0,0,3.15-3.53,9.232,9.232,0,0,0,1.1-4.34A1.941,1.941,0,0,0,1280.84,4108.62Z" transform="translate(-1266.5 -4105.38)"/>
</svg>
